<?xml version="1.0" encoding="utf-8" standalone="no"?>
<!DOCTYPE svg PUBLIC "-//W3C//DTD SVG 1.1//EN"
  "http://www.w3.org/Graphics/SVG/1.1/DTD/svg11.dtd">
<!-- Created with matplotlib (https://matplotlib.org/) -->
<svg height="299.867677pt" version="1.1" viewBox="0 0 408.49132 299.867677" width="408.49132pt" xmlns="http://www.w3.org/2000/svg" xmlns:xlink="http://www.w3.org/1999/xlink">
 <defs>
  <style type="text/css">
*{stroke-linecap:butt;stroke-linejoin:round;}
  </style>
 </defs>
 <g id="figure_1">
  <g id="patch_1">
   <path d="M 0 299.867677 
L 408.49132 299.867677 
L 408.49132 0 
L 0 0 
z
" style="fill:#ffffff;"/>
  </g>
  <g id="axes_1">
   <g id="patch_2">
    <path d="M 40.67132 276.812 
L 397.79132 276.812 
L 397.79132 10.7 
L 40.67132 10.7 
z
" style="fill:#ffffff;"/>
   </g>
   <g id="matplotlib.axis_1">
    <g id="xtick_1">
     <g id="line2d_1">
      <path clip-path="url(#p3e32c92e7d)" d="M 85.31132 276.812 
L 85.31132 10.7 
" style="fill:none;stroke:#b0b0b0;stroke-linecap:square;stroke-width:0.8;"/>
     </g>
     <g id="line2d_2">
      <defs>
       <path d="M 0 0 
L 0 3.5 
" id="mb40c69303c" style="stroke:#000000;stroke-width:0.8;"/>
      </defs>
      <g>
       <use style="stroke:#000000;stroke-width:0.8;" x="85.31132" xlink:href="#mb40c69303c" y="276.812"/>
      </g>
     </g>
     <g id="text_1">
      <!-- NB -->
      <defs>
       <path d="M 20.5 66.796875 
C 19.796875 67.890625 19.703125 68 17.796875 68 
L 5.09375 68 
L 5.09375 65.390625 
L 7 65.390625 
C 11 65.390625 12.796875 64.890625 13.09375 64.796875 
L 13.09375 9.75 
C 13.09375 7.265625 13.09375 2.59375 5.09375 2.59375 
L 5.09375 0 
C 7.40625 0.1875 11.59375 0.1875 14.09375 0.1875 
C 16.59375 0.1875 20.796875 0.1875 23.09375 0 
L 23.09375 2.59375 
C 15.09375 2.59375 15.09375 7.265625 15.09375 9.75 
L 15.09375 63.390625 
C 15.796875 62.796875 15.796875 62.609375 16.5 61.609375 
L 53.59375 1.1875 
C 54.296875 0 54.59375 0 55.09375 0 
C 56.09375 0 56.09375 0.296875 56.09375 2.1875 
L 56.09375 58.21875 
C 56.09375 60.703125 56.09375 65.390625 64.09375 65.390625 
L 64.09375 68 
C 61.796875 67.796875 57.59375 67.796875 55.09375 67.796875 
C 52.59375 67.796875 48.40625 67.796875 46.09375 68 
L 46.09375 65.390625 
C 54.09375 65.390625 54.09375 60.703125 54.09375 58.21875 
L 54.09375 12.140625 
z
" id="CMR17-78"/>
       <path d="M 5.203125 68 
L 5.203125 65.390625 
C 12.09375 65.390625 13.203125 65.390625 13.203125 60.890625 
L 13.203125 7.046875 
C 13.203125 2.59375 12.09375 2.59375 5.203125 2.59375 
L 5.203125 0 
L 39.59375 0 
C 52.40625 0 60.703125 9.03125 60.703125 18.046875 
C 60.703125 26.96875 52.5 34.59375 41.796875 35.296875 
C 51.40625 37.1875 58.09375 43.59375 58.09375 51.1875 
C 58.09375 59.5 49.90625 68 37 68 
z
M 19.5 36 
L 19.5 61.5 
C 19.5 64.890625 19.703125 65.390625 23.703125 65.390625 
L 36.5 65.390625 
C 46.40625 65.390625 50.796875 57.390625 50.796875 51.1875 
C 50.796875 43.59375 44.703125 36 33.90625 36 
z
M 23.703125 2.59375 
C 19.703125 2.59375 19.5 3.09375 19.5 6.453125 
L 19.5 34.390625 
L 38 34.390625 
C 48.296875 34.390625 53.296875 25.375 53.296875 18.140625 
C 53.296875 10.90625 47.59375 2.59375 36.703125 2.59375 
z
" id="CMR17-66"/>
      </defs>
      <g transform="translate(78.046875 290.730498)scale(0.1 -0.1)">
       <use transform="scale(0.996264)" xlink:href="#CMR17-78"/>
       <use transform="translate(69.07243 0)scale(0.996264)" xlink:href="#CMR17-66"/>
      </g>
     </g>
    </g>
    <g id="xtick_2">
     <g id="line2d_3">
      <path clip-path="url(#p3e32c92e7d)" d="M 174.59132 276.812 
L 174.59132 10.7 
" style="fill:none;stroke:#b0b0b0;stroke-linecap:square;stroke-width:0.8;"/>
     </g>
     <g id="line2d_4">
      <g>
       <use style="stroke:#000000;stroke-width:0.8;" x="174.59132" xlink:href="#mb40c69303c" y="276.812"/>
      </g>
     </g>
     <g id="text_2">
      <!-- KNN -->
      <defs>
       <path d="M 36.90625 41.703125 
L 54.203125 58.921875 
C 57.796875 62.40625 61.59375 65.1875 67.203125 65.390625 
L 67.203125 68 
C 65.203125 67.890625 62.703125 67.796875 60.703125 67.796875 
C 58 67.796875 53.296875 67.796875 50.703125 68 
L 50.703125 65.390625 
C 53.296875 65.1875 53.703125 63.390625 53.703125 62.703125 
C 53.703125 62 53.296875 60.90625 52.90625 60.3125 
L 19.703125 27.171875 
L 19.703125 60.90625 
C 19.703125 65.390625 20.796875 65.390625 27.703125 65.390625 
L 27.703125 68 
C 24.796875 67.796875 19.5 67.796875 16.40625 67.796875 
C 13.296875 67.796875 8 67.796875 5.09375 68 
L 5.09375 65.390625 
C 12 65.390625 13.09375 65.390625 13.09375 60.90625 
L 13.09375 7.078125 
C 13.09375 2.59375 12 2.59375 5.09375 2.59375 
L 5.09375 0 
C 8 0.1875 13.296875 0.1875 16.40625 0.1875 
C 19.5 0.1875 24.796875 0.1875 27.703125 0 
L 27.703125 2.59375 
C 20.796875 2.59375 19.703125 2.59375 19.703125 7.078125 
L 19.703125 24.6875 
L 32.5 37.328125 
L 51.40625 8.46875 
C 52 7.46875 52.703125 6.171875 52.703125 5.1875 
C 52.703125 2.59375 49.90625 2.59375 48.59375 2.59375 
L 48.59375 0 
C 51.796875 0.1875 56.40625 0.1875 59.703125 0.1875 
C 62.09375 0.1875 66.203125 0.1875 68.5 0 
L 68.5 2.59375 
C 63.703125 2.59375 62.203125 3.1875 59.203125 7.765625 
z
" id="CMR17-75"/>
      </defs>
      <g transform="translate(163.244953 290.730498)scale(0.1 -0.1)">
       <use transform="scale(0.996264)" xlink:href="#CMR17-75"/>
       <use transform="translate(71.674777 0)scale(0.996264)" xlink:href="#CMR17-78"/>
       <use transform="translate(140.747207 0)scale(0.996264)" xlink:href="#CMR17-78"/>
      </g>
     </g>
    </g>
    <g id="xtick_3">
     <g id="line2d_5">
      <path clip-path="url(#p3e32c92e7d)" d="M 263.87132 276.812 
L 263.87132 10.7 
" style="fill:none;stroke:#b0b0b0;stroke-linecap:square;stroke-width:0.8;"/>
     </g>
     <g id="line2d_6">
      <g>
       <use style="stroke:#000000;stroke-width:0.8;" x="263.87132" xlink:href="#mb40c69303c" y="276.812"/>
      </g>
     </g>
     <g id="text_3">
      <!-- SVM -->
      <defs>
       <path d="M 43.796875 67.984375 
C 43.796875 69.796875 43.703125 69.890625 43.09375 69.890625 
C 42.5 69.890625 42.296875 69.484375 41.90625 68.59375 
L 38.90625 61.953125 
C 35.09375 67.5 29.296875 70 23 70 
C 12.796875 70 4.59375 61.84375 4.59375 51.578125 
C 4.59375 48.453125 5.296875 44.015625 8.703125 39.78125 
C 12.40625 35.15625 15.90625 34.34375 23.90625 32.234375 
C 26.90625 31.421875 31.90625 30.109375 32.90625 29.703125 
C 38.59375 27.296875 41.59375 21.25 41.59375 15.609375 
C 41.59375 8.34375 36.5 0.59375 27.796875 0.59375 
C 17.09375 0.59375 7.09375 6.640625 6.40625 20.75 
C 6.296875 22.359375 6.203125 22.453125 5.5 22.453125 
C 4.703125 22.453125 4.59375 22.359375 4.59375 20.34375 
L 4.59375 0 
C 4.59375 -1.8125 4.703125 -1.90625 5.296875 -1.90625 
C 6 -1.90625 6.203125 -1.40625 7.59375 1.703125 
C 7.703125 2 7.703125 2.203125 9.59375 6.03125 
C 14.59375 -0.609375 23 -2 27.796875 -2 
C 38.703125 -2 46.40625 7.140625 46.40625 17.828125 
C 46.40625 23.0625 44.5 27.09375 43.40625 28.90625 
C 39.203125 35.359375 34.703125 36.5625 29.90625 37.765625 
C 29.203125 38.078125 29 38.078125 23.40625 39.484375 
C 18 40.890625 15.703125 41.59375 13.203125 44.3125 
C 10.40625 47.4375 9.40625 50.671875 9.40625 53.890625 
C 9.40625 60.4375 14.59375 67.59375 23.09375 67.59375 
C 33.703125 67.59375 40.296875 60.03125 41.796875 47.4375 
C 42.09375 45.625 42.203125 45.53125 42.90625 45.53125 
C 43.796875 45.53125 43.796875 45.828125 43.796875 47.546875 
z
" id="CMR17-83"/>
       <path d="M 59 58.78125 
C 59.90625 60.984375 61.5 65.296875 68.203125 65.390625 
L 68.203125 68 
C 65.90625 67.796875 63.296875 67.796875 60.796875 67.796875 
C 58.40625 67.796875 54.296875 67.796875 52 68 
L 52 65.390625 
C 57 65.09375 57.203125 61.59375 57.203125 60.984375 
C 57.203125 59.890625 56.90625 59.1875 56.59375 58.390625 
L 36.90625 7 
L 16.296875 60.984375 
C 16 61.6875 15.796875 62.1875 15.796875 62.6875 
C 15.796875 65.390625 19.796875 65.390625 21.90625 65.390625 
L 21.90625 68 
C 18.703125 67.796875 14 67.796875 10.703125 67.796875 
C 8.09375 67.796875 3.40625 67.796875 1 68 
L 1 65.390625 
C 6.796875 65.390625 7.90625 65 9.09375 61.796875 
L 32.90625 -0.40625 
C 33.40625 -1.8125 33.5 -2 34.59375 -2 
C 35.703125 -2 35.796875 -1.8125 36.296875 -0.40625 
z
" id="CMR17-86"/>
       <path d="M 20.90625 66.390625 
C 20.296875 67.890625 20.203125 68 18.09375 68 
L 5.296875 68 
L 5.296875 65.390625 
C 12.203125 65.390625 13.296875 65.390625 13.296875 60.90625 
L 13.296875 9.75 
C 13.296875 7.265625 13.296875 2.59375 5.296875 2.59375 
L 5.296875 0 
C 7.59375 0.1875 11.796875 0.1875 14.296875 0.1875 
C 16.796875 0.1875 21 0.1875 23.296875 0 
L 23.296875 2.59375 
C 15.296875 2.59375 15.296875 7.265625 15.296875 9.75 
L 15.296875 64.984375 
L 15.40625 64.984375 
L 38.90625 1.59375 
C 39.296875 0.59375 39.5 0 40.296875 0 
C 41.09375 0 41.296875 0.59375 41.703125 1.59375 
L 65.40625 65.484375 
L 65.5 65.484375 
L 65.5 7.078125 
C 65.5 2.59375 64.40625 2.59375 57.5 2.59375 
L 57.5 0 
C 60.203125 0.1875 65.59375 0.1875 68.5 0.1875 
C 71.40625 0.1875 76.90625 0.1875 79.59375 0 
L 79.59375 2.59375 
C 72.703125 2.59375 71.59375 2.59375 71.59375 7.078125 
L 71.59375 60.90625 
C 71.59375 65.390625 72.703125 65.390625 79.59375 65.390625 
L 79.59375 68 
L 66.90625 68 
C 64.796875 68 64.703125 67.890625 64.09375 66.390625 
L 42.5 8.0625 
z
" id="CMR17-77"/>
      </defs>
      <g transform="translate(252.801694 290.730498)scale(0.1 -0.1)">
       <use transform="scale(0.996264)" xlink:href="#CMR17-83"/>
       <use transform="translate(50.89537 0)scale(0.996264)" xlink:href="#CMR17-86"/>
       <use transform="translate(119.9678 0)scale(0.996264)" xlink:href="#CMR17-77"/>
      </g>
     </g>
    </g>
    <g id="xtick_4">
     <g id="line2d_7">
      <path clip-path="url(#p3e32c92e7d)" d="M 353.15132 276.812 
L 353.15132 10.7 
" style="fill:none;stroke:#b0b0b0;stroke-linecap:square;stroke-width:0.8;"/>
     </g>
     <g id="line2d_8">
      <g>
       <use style="stroke:#000000;stroke-width:0.8;" x="353.15132" xlink:href="#mb40c69303c" y="276.812"/>
      </g>
     </g>
     <g id="text_4">
      <!-- RF -->
      <defs>
       <path d="M 39.203125 33.6875 
C 48.703125 35.59375 56.703125 42.015625 56.703125 50.046875 
C 56.703125 59.46875 46.09375 68 32.09375 68 
L 5.203125 68 
L 5.203125 65.390625 
C 12.09375 65.390625 13.203125 65.390625 13.203125 60.875 
L 13.203125 6.6875 
C 13.203125 2.1875 12.09375 2.1875 5.203125 2.1875 
L 5.203125 -0.40625 
C 8.09375 -0.203125 13.296875 -0.203125 16.40625 -0.203125 
C 19.5 -0.203125 24.703125 -0.203125 27.59375 -0.40625 
L 27.59375 2.1875 
C 20.703125 2.1875 19.59375 2.1875 19.59375 6.6875 
L 19.59375 33 
L 31.296875 33 
C 37 33 40.203125 30.6875 41.59375 29.390625 
C 45.59375 25.5 45.59375 22.796875 45.59375 16 
C 45.59375 9.296875 45.59375 5.890625 48.59375 2.5 
C 52.40625 -1.609375 57.5 -2 59.703125 -2 
C 67.09375 -2 68.203125 6.296875 68.203125 8 
C 68.203125 8.59375 68.203125 9.296875 67.296875 9.296875 
C 66.5 9.296875 66.40625 8.6875 66.40625 8.296875 
C 65.90625 1.796875 63 -0.40625 59.90625 -0.40625 
C 54.40625 -0.40625 53.796875 5.890625 53.203125 12 
C 52.90625 14.09375 52.703125 15.59375 52.5 17.796875 
C 51.90625 22.796875 51.09375 30.09375 39.203125 33.6875 
z
M 31 34.59375 
L 19.59375 34.59375 
L 19.59375 61.484375 
C 19.59375 64.890625 19.796875 65.390625 23.796875 65.390625 
L 31.09375 65.390625 
C 39.40625 65.390625 49.09375 62.484375 49.09375 50.046875 
C 49.09375 37.09375 38.5 34.59375 31 34.59375 
z
" id="CMR17-82"/>
       <path d="M 54.40625 67.796875 
L 5.09375 67.796875 
L 5.09375 65.1875 
C 12 65.1875 13.09375 65.1875 13.09375 60.671875 
L 13.09375 7.03125 
C 13.09375 2.59375 12 2.59375 5.09375 2.59375 
L 5.09375 0 
C 8 0.1875 13.59375 0.1875 16.703125 0.1875 
C 20.796875 0.1875 25.59375 0.1875 29.703125 0 
L 29.703125 2.59375 
L 27.5 2.59375 
C 19.90625 2.59375 19.703125 3.578125 19.703125 7.125 
L 19.703125 32.390625 
L 28.703125 32.390625 
C 38 32.390625 38.90625 29.140625 38.90625 20.84375 
L 40.703125 20.84375 
L 40.703125 46.734375 
L 38.90625 46.734375 
C 38.90625 38.296875 38 35 28.703125 35 
L 19.703125 35 
L 19.703125 61.28125 
C 19.703125 64.6875 19.90625 65.1875 23.90625 65.1875 
L 36.796875 65.1875 
C 51.90625 65.1875 53.59375 58.96875 55 45.625 
L 56.796875 45.625 
z
" id="CMR17-70"/>
      </defs>
      <g transform="translate(346.232807 290.730498)scale(0.1 -0.1)">
       <use transform="scale(0.996264)" xlink:href="#CMR17-82"/>
       <use transform="translate(67.791102 0)scale(0.996264)" xlink:href="#CMR17-70"/>
      </g>
     </g>
    </g>
   </g>
   <g id="matplotlib.axis_2">
    <g id="ytick_1">
     <g id="line2d_9">
      <path clip-path="url(#p3e32c92e7d)" d="M 40.67132 264.716 
L 397.79132 264.716 
" style="fill:none;stroke:#b0b0b0;stroke-linecap:square;stroke-width:0.8;"/>
     </g>
     <g id="line2d_10">
      <defs>
       <path d="M 0 0 
L -3.5 0 
" id="mbd7ca7d03e" style="stroke:#000000;stroke-width:0.8;"/>
      </defs>
      <g>
       <use style="stroke:#000000;stroke-width:0.8;" x="40.67132" xlink:href="#mbd7ca7d03e" y="264.716"/>
      </g>
     </g>
     <g id="text_5">
      <!-- $0.0$ -->
      <defs>
       <path d="M 42 31.84375 
C 42 37.96875 41.90625 48.421875 37.703125 56.453125 
C 34 63.484375 28.09375 66 22.90625 66 
C 18.09375 66 12 63.78125 8.203125 56.5625 
C 4.203125 49.015625 3.796875 39.671875 3.796875 31.84375 
C 3.796875 26.109375 3.90625 17.375 7 9.734375 
C 11.296875 -0.609375 19 -2 22.90625 -2 
C 27.5 -2 34.5 -0.109375 38.59375 9.4375 
C 41.59375 16.375 42 24.5 42 31.84375 
z
M 22.90625 -0.40625 
C 16.5 -0.40625 12.703125 5.125 11.296875 12.75 
C 10.203125 18.6875 10.203125 27.328125 10.203125 32.953125 
C 10.203125 40.6875 10.203125 47.109375 11.5 53.234375 
C 13.40625 61.78125 19 64.390625 22.90625 64.390625 
C 27 64.390625 32.296875 61.671875 34.203125 53.4375 
C 35.5 47.71875 35.59375 40.984375 35.59375 32.953125 
C 35.59375 26.421875 35.59375 18.375 34.40625 12.453125 
C 32.296875 1.5 26.40625 -0.40625 22.90625 -0.40625 
z
" id="CMR17-48"/>
       <path d="M 18.40625 4.796875 
C 18.40625 7.6875 16 9.6875 13.59375 9.6875 
C 10.703125 9.6875 8.703125 7.296875 8.703125 4.890625 
C 8.703125 2 11.09375 0 13.5 0 
C 16.40625 0 18.40625 2.390625 18.40625 4.796875 
z
" id="CMMI12-58"/>
      </defs>
      <g transform="translate(20.941241 268.175249)scale(0.1 -0.1)">
       <use transform="scale(0.996264)" xlink:href="#CMR17-48"/>
       <use transform="translate(45.690477 0)scale(0.996264)" xlink:href="#CMMI12-58"/>
       <use transform="translate(72.787654 0)scale(0.996264)" xlink:href="#CMR17-48"/>
      </g>
     </g>
    </g>
    <g id="ytick_2">
     <g id="line2d_11">
      <path clip-path="url(#p3e32c92e7d)" d="M 40.67132 216.332 
L 397.79132 216.332 
" style="fill:none;stroke:#b0b0b0;stroke-linecap:square;stroke-width:0.8;"/>
     </g>
     <g id="line2d_12">
      <g>
       <use style="stroke:#000000;stroke-width:0.8;" x="40.67132" xlink:href="#mbd7ca7d03e" y="216.332"/>
      </g>
     </g>
     <g id="text_6">
      <!-- $0.2$ -->
      <defs>
       <path d="M 41.703125 15.46875 
L 39.90625 15.46875 
C 38.90625 8.390625 38.09375 7.1875 37.703125 6.59375 
C 37.203125 5.796875 30 5.796875 28.59375 5.796875 
L 9.40625 5.796875 
C 13 9.6875 20 16.765625 28.5 24.9375 
C 34.59375 30.71875 41.703125 37.5 41.703125 47.390625 
C 41.703125 59.1875 32.296875 66 21.796875 66 
C 10.796875 66 4.09375 56.296875 4.09375 47.296875 
C 4.09375 43.390625 7 42.890625 8.203125 42.890625 
C 9.203125 42.890625 12.203125 43.484375 12.203125 46.984375 
C 12.203125 50.09375 9.59375 51 8.203125 51 
C 7.59375 51 7 50.890625 6.59375 50.6875 
C 8.5 59.1875 14.296875 63.390625 20.40625 63.390625 
C 29.09375 63.390625 34.796875 56.5 34.796875 47.390625 
C 34.796875 38.703125 29.703125 31.21875 24 24.734375 
L 4.09375 2.296875 
L 4.09375 0 
L 39.296875 0 
z
" id="CMR17-50"/>
      </defs>
      <g transform="translate(20.941241 219.791249)scale(0.1 -0.1)">
       <use transform="scale(0.996264)" xlink:href="#CMR17-48"/>
       <use transform="translate(45.690477 0)scale(0.996264)" xlink:href="#CMMI12-58"/>
       <use transform="translate(72.787654 0)scale(0.996264)" xlink:href="#CMR17-50"/>
      </g>
     </g>
    </g>
    <g id="ytick_3">
     <g id="line2d_13">
      <path clip-path="url(#p3e32c92e7d)" d="M 40.67132 167.948 
L 397.79132 167.948 
" style="fill:none;stroke:#b0b0b0;stroke-linecap:square;stroke-width:0.8;"/>
     </g>
     <g id="line2d_14">
      <g>
       <use style="stroke:#000000;stroke-width:0.8;" x="40.67132" xlink:href="#mbd7ca7d03e" y="167.948"/>
      </g>
     </g>
     <g id="text_7">
      <!-- $0.4$ -->
      <defs>
       <path d="M 33.59375 64.796875 
C 33.59375 66.890625 33.5 67 31.703125 67 
L 2 19.59375 
L 2 17 
L 27.796875 17 
L 27.796875 7.1875 
C 27.796875 3.59375 27.59375 2.59375 20.59375 2.59375 
L 18.703125 2.59375 
L 18.703125 0 
C 21.90625 0.1875 27.296875 0.1875 30.703125 0.1875 
C 34.09375 0.1875 39.5 0.1875 42.703125 0 
L 42.703125 2.59375 
L 40.796875 2.59375 
C 33.796875 2.59375 33.59375 3.59375 33.59375 7.1875 
L 33.59375 17 
L 43.796875 17 
L 43.796875 19.59375 
L 33.59375 19.59375 
z
M 28.09375 58.171875 
L 28.09375 19.59375 
L 4 19.59375 
z
" id="CMR17-52"/>
      </defs>
      <g transform="translate(20.941241 171.407249)scale(0.1 -0.1)">
       <use transform="scale(0.996264)" xlink:href="#CMR17-48"/>
       <use transform="translate(45.690477 0)scale(0.996264)" xlink:href="#CMMI12-58"/>
       <use transform="translate(72.787654 0)scale(0.996264)" xlink:href="#CMR17-52"/>
      </g>
     </g>
    </g>
    <g id="ytick_4">
     <g id="line2d_15">
      <path clip-path="url(#p3e32c92e7d)" d="M 40.67132 119.564 
L 397.79132 119.564 
" style="fill:none;stroke:#b0b0b0;stroke-linecap:square;stroke-width:0.8;"/>
     </g>
     <g id="line2d_16">
      <g>
       <use style="stroke:#000000;stroke-width:0.8;" x="40.67132" xlink:href="#mbd7ca7d03e" y="119.564"/>
      </g>
     </g>
     <g id="text_8">
      <!-- $0.6$ -->
      <defs>
       <path d="M 10.59375 34.34375 
C 10.59375 58 21.796875 63.6875 28.296875 63.6875 
C 30.40625 63.6875 35.5 63.265625 37.5 59.09375 
C 35.90625 59.09375 32.90625 59.09375 32.90625 55.59375 
C 32.90625 52.890625 35.09375 52 36.5 52 
C 37.40625 52 40.09375 52.390625 40.09375 55.796875 
C 40.09375 62.296875 35.09375 66 28.203125 66 
C 16.296875 66 3.796875 53.296875 3.796875 31.421875 
C 3.796875 4.015625 15.09375 -2 23.09375 -2 
C 32.796875 -2 42 6.734375 42 20.234375 
C 42 32.828125 33.90625 42 23.703125 42 
C 17.59375 42 13.09375 37.96875 10.59375 30.921875 
z
M 23.09375 0.390625 
C 10.796875 0.390625 10.796875 18.9375 10.796875 22.65625 
C 10.796875 29.90625 14.203125 40.390625 23.5 40.390625 
C 25.203125 40.390625 30.09375 40.390625 33.40625 33.4375 
C 35.203125 29.515625 35.203125 25.375 35.203125 20.34375 
C 35.203125 14.90625 35.203125 10.875 33.09375 6.84375 
C 30.90625 2.703125 27.703125 0.390625 23.09375 0.390625 
z
" id="CMR17-54"/>
      </defs>
      <g transform="translate(20.941241 123.023249)scale(0.1 -0.1)">
       <use transform="scale(0.996264)" xlink:href="#CMR17-48"/>
       <use transform="translate(45.690477 0)scale(0.996264)" xlink:href="#CMMI12-58"/>
       <use transform="translate(72.787654 0)scale(0.996264)" xlink:href="#CMR17-54"/>
      </g>
     </g>
    </g>
    <g id="ytick_5">
     <g id="line2d_17">
      <path clip-path="url(#p3e32c92e7d)" d="M 40.67132 71.18 
L 397.79132 71.18 
" style="fill:none;stroke:#b0b0b0;stroke-linecap:square;stroke-width:0.8;"/>
     </g>
     <g id="line2d_18">
      <g>
       <use style="stroke:#000000;stroke-width:0.8;" x="40.67132" xlink:href="#mbd7ca7d03e" y="71.18"/>
      </g>
     </g>
     <g id="text_9">
      <!-- $0.8$ -->
      <defs>
       <path d="M 27.203125 35.765625 
C 33.5 38.96875 39.90625 43.796875 39.90625 51.53125 
C 39.90625 60.6875 31.09375 66 23 66 
C 13.90625 66 5.90625 59.375 5.90625 50.234375 
C 5.90625 47.71875 6.5 43.390625 10.40625 39.578125 
C 11.40625 38.578125 15.59375 35.5625 18.296875 33.65625 
C 13.796875 31.34375 3.296875 25.8125 3.296875 14.765625 
C 3.296875 4.40625 13.09375 -2 22.796875 -2 
C 33.5 -2 42.5 5.71875 42.5 15.96875 
C 42.5 25.109375 36.40625 29.328125 32.40625 32.046875 
z
M 14.09375 44.609375 
C 13.296875 45.109375 9.296875 48.21875 9.296875 52.9375 
C 9.296875 59.078125 15.59375 63.6875 22.796875 63.6875 
C 30.703125 63.6875 36.5 58.0625 36.5 51.53125 
C 36.5 42.1875 26.09375 36.859375 25.59375 36.859375 
C 25.5 36.859375 25.40625 36.859375 24.59375 37.46875 
z
M 32.5 24 
C 34 22.90625 38.796875 19.578125 38.796875 13.453125 
C 38.796875 6.015625 31.40625 0.390625 23 0.390625 
C 13.90625 0.390625 7 6.921875 7 14.859375 
C 7 22.796875 13.09375 29.4375 20 32.546875 
z
" id="CMR17-56"/>
      </defs>
      <g transform="translate(20.941241 74.639249)scale(0.1 -0.1)">
       <use transform="scale(0.996264)" xlink:href="#CMR17-48"/>
       <use transform="translate(45.690477 0)scale(0.996264)" xlink:href="#CMMI12-58"/>
       <use transform="translate(72.787654 0)scale(0.996264)" xlink:href="#CMR17-56"/>
      </g>
     </g>
    </g>
    <g id="ytick_6">
     <g id="line2d_19">
      <path clip-path="url(#p3e32c92e7d)" d="M 40.67132 22.796 
L 397.79132 22.796 
" style="fill:none;stroke:#b0b0b0;stroke-linecap:square;stroke-width:0.8;"/>
     </g>
     <g id="line2d_20">
      <g>
       <use style="stroke:#000000;stroke-width:0.8;" x="40.67132" xlink:href="#mbd7ca7d03e" y="22.796"/>
      </g>
     </g>
     <g id="text_10">
      <!-- $1.0$ -->
      <defs>
       <path d="M 26.59375 63.796875 
C 26.59375 65.890625 26.5 66 25.09375 66 
C 21.203125 61.359375 15.296875 59.890625 9.703125 59.6875 
C 9.40625 59.6875 8.90625 59.6875 8.796875 59.5 
C 8.703125 59.296875 8.703125 59.09375 8.703125 57 
C 11.796875 57 17 57.59375 21 59.984375 
L 21 7.296875 
C 21 3.796875 20.796875 2.59375 12.203125 2.59375 
L 9.203125 2.59375 
L 9.203125 0 
C 14 0.09375 19 0.1875 23.796875 0.1875 
C 28.59375 0.1875 33.59375 0.09375 38.40625 0 
L 38.40625 2.59375 
L 35.40625 2.59375 
C 26.796875 2.59375 26.59375 3.6875 26.59375 7.296875 
z
" id="CMR17-49"/>
      </defs>
      <g transform="translate(20.941241 26.255249)scale(0.1 -0.1)">
       <use transform="scale(0.996264)" xlink:href="#CMR17-49"/>
       <use transform="translate(45.690477 0)scale(0.996264)" xlink:href="#CMMI12-58"/>
       <use transform="translate(72.787654 0)scale(0.996264)" xlink:href="#CMR17-48"/>
      </g>
     </g>
    </g>
    <g id="text_11">
     <!-- \textbf{f1score} -->
     <defs>
      <path d="M 21.703125 39.6875 
L 33.09375 39.6875 
L 33.09375 44 
L 21.203125 44 
L 21.203125 54.15625 
C 21.203125 64.40625 27.796875 66 31.09375 66 
C 32.203125 66 32.40625 65.890625 33 65.6875 
C 31.5 64.703125 30.59375 63.03125 30.59375 60.953125 
C 30.59375 57.015625 33.796875 55.234375 36.40625 55.234375 
C 38.59375 55.234375 42.203125 56.71875 42.203125 61.0625 
C 42.203125 65.109375 38.59375 69.296875 31.5 69.296875 
C 22.40625 69.296875 11.296875 65.5 11.296875 54.046875 
L 11.296875 44 
L 3.90625 44 
L 3.90625 39.6875 
L 11.296875 39.6875 
L 11.296875 4.296875 
L 4.40625 4.296875 
L 4.40625 0 
C 6.703125 0.1875 14.203125 0.1875 17 0.1875 
C 19.90625 0.1875 28 0.1875 30.40625 0 
L 30.40625 4.296875 
L 21.703125 4.296875 
z
" id="CMBX12-102"/>
      <path d="M 34.59375 63.03125 
C 34.59375 66 34.40625 66 31.203125 66 
C 23.796875 59.296875 12.703125 59.296875 10.5 59.296875 
L 8.59375 59.296875 
L 8.59375 55 
L 10.5 55 
C 14 55 19.296875 55.59375 23.296875 56.890625 
L 23.296875 4.296875 
L 9.40625 4.296875 
L 9.40625 0 
C 13.59375 0.1875 24.09375 0.1875 28.796875 0.1875 
C 33.5 0.1875 44.09375 0.1875 48.296875 0 
L 48.296875 4.296875 
L 34.59375 4.296875 
z
" id="CMBX12-49"/>
      <path d="M 37.703125 42.390625 
C 37.703125 44.296875 37.703125 45 36.203125 45 
C 35.59375 45 35.40625 45 33.90625 44.09375 
C 33.5 43.796875 32.40625 43.09375 31.90625 42.796875 
C 29.09375 44.390625 25.40625 45 21.796875 45 
C 18.796875 45 3.796875 45 3.796875 31.96875 
C 3.796875 21.4375 16.203125 19.234375 19.296875 18.734375 
C 22 18.234375 25.296875 17.625 25.703125 17.625 
C 29.703125 16.734375 33.703125 14.21875 33.703125 10.015625 
C 33.703125 2.296875 24.59375 2.296875 22.5 2.296875 
C 17.40625 2.296875 11.09375 3.890625 8.296875 13.625 
C 7.703125 15.625 7.59375 15.71875 5.90625 15.71875 
C 3.796875 15.71875 3.796875 15.421875 3.796875 13.125 
L 3.796875 1.59375 
C 3.796875 -0.3125 3.796875 -1 5.296875 -1 
C 6 -1 6.203125 -1 8.203125 0.59375 
L 10.796875 2.5 
C 15.296875 -1 20.703125 -1 22.5 -1 
C 28 -1 40.5 0.1875 40.5 13.515625 
C 40.5 18.328125 37.90625 21.640625 35.90625 23.4375 
C 31.796875 26.859375 28.40625 27.453125 23 28.453125 
C 16.59375 29.5625 10.59375 30.65625 10.59375 35.46875 
C 10.59375 41.984375 19.5 41.984375 21.59375 41.984375 
C 32.703125 41.984375 33.296875 34.96875 33.5 32.46875 
C 33.59375 31.171875 34.40625 31.171875 35.59375 31.171875 
C 37.703125 31.171875 37.703125 31.46875 37.703125 33.765625 
z
" id="CMBX12-115"/>
      <path d="M 46.796875 11.3125 
C 46.796875 12.515625 45.703125 12.515625 44.703125 12.515625 
C 43.09375 12.515625 43 12.421875 42.5 11.21875 
C 41.796875 9.3125 39.09375 2.59375 29.90625 2.59375 
C 15.796875 2.59375 15.796875 17.828125 15.796875 22.34375 
C 15.796875 28.25 15.90625 41.390625 29 41.390625 
C 29.703125 41.390625 35.59375 41.1875 35.59375 40.6875 
C 35.59375 40.59375 35.5 40.484375 35.296875 40.390625 
C 35 40.09375 33.703125 38.578125 33.703125 36.078125 
C 33.703125 31.859375 37.09375 30.15625 39.59375 30.15625 
C 41.703125 30.15625 45.5 31.46875 45.5 36.171875 
C 45.5 44.390625 34 45 28.59375 45 
C 10.796875 45 3.796875 33.375 3.796875 21.84375 
C 3.796875 8.203125 13.296875 -1 28 -1 
C 43.703125 -1 46.796875 10.609375 46.796875 11.3125 
z
" id="CMBX12-99"/>
      <path d="M 53 21.546875 
C 53 35.078125 43.796875 45 28.09375 45 
C 11.796875 45 3.09375 34.578125 3.09375 21.546875 
C 3.09375 8.40625 12.296875 -1 28 -1 
C 44.296875 -1 53 8.90625 53 21.546875 
z
M 28.09375 2.59375 
C 15.09375 2.59375 15.09375 14.328125 15.09375 22.546875 
C 15.09375 27.25 15.09375 32.265625 17 35.875 
C 19.203125 39.890625 23.703125 41.6875 28 41.6875 
C 33.703125 41.6875 37.296875 38.984375 39 36.171875 
C 41 32.5625 41 27.359375 41 22.546875 
C 41 14.21875 41 2.59375 28.09375 2.59375 
z
" id="CMBX12-111"/>
      <path d="M 20.796875 22.5 
C 20.796875 25.796875 21.5 41.6875 33.203125 41.6875 
C 31.796875 40.59375 31.09375 38.890625 31.09375 37.09375 
C 31.09375 33 34.40625 31.296875 36.90625 31.296875 
C 39.40625 31.296875 42.703125 33 42.703125 37.09375 
C 42.703125 42.1875 37.5 45 32.703125 45 
C 24.796875 45 21.40625 38.09375 20 33.890625 
L 19.90625 33.890625 
L 19.90625 45 
L 3.5 44.1875 
L 3.5 39.890625 
C 9.703125 39.890625 10.40625 39.890625 10.40625 36 
L 10.40625 4.296875 
L 3.5 4.296875 
L 3.5 0 
C 5.796875 0.1875 13.296875 0.1875 16.09375 0.1875 
C 19 0.1875 27.09375 0.1875 29.5 0 
L 29.5 4.296875 
L 20.796875 4.296875 
z
" id="CMBX12-114"/>
      <path d="M 45.203125 22 
C 47.5 22 48.09375 22 48.09375 24.5 
C 48.09375 27.46875 47.40625 34.875 42.796875 39.515625 
C 38.59375 43.6875 33 45 27.203125 45 
C 11.59375 45 3.09375 34.875 3.09375 22.390625 
C 3.09375 8.171875 13.40625 -1 28.5 -1 
C 43.59375 -1 48.09375 9.703125 48.09375 11.421875 
C 48.09375 12.953125 46.59375 12.953125 46 12.953125 
C 44.40625 12.953125 44.296875 12.640625 43.703125 11.328125 
C 41.09375 4.71875 34.5 2.59375 29.703125 2.59375 
C 15.203125 2.59375 15.09375 16.296875 15.09375 22 
z
M 15.09375 24.890625 
C 15.296875 28.9375 15.40625 32.796875 17.5 36.359375 
C 19.40625 39.515625 22.90625 41.6875 27.203125 41.6875 
C 37.90625 41.6875 38.796875 29.828125 38.90625 24.890625 
z
" id="CMBX12-101"/>
     </defs>
     <g transform="translate(14.810347 162.752086)rotate(-90)scale(0.11 -0.11)">
      <use transform="scale(0.996264)" xlink:href="#CMBX12-102"/>
      <use transform="translate(34.246575 0)scale(0.996264)" xlink:href="#CMBX12-49"/>
      <use transform="translate(90.286426 0)scale(0.996264)" xlink:href="#CMBX12-115"/>
      <use transform="translate(134.495763 0)scale(0.996264)" xlink:href="#CMBX12-99"/>
      <use transform="translate(184.308963 0)scale(0.996264)" xlink:href="#CMBX12-111"/>
      <use transform="translate(240.348814 0)scale(0.996264)" xlink:href="#CMBX12-114"/>
      <use transform="translate(286.126321 0)scale(0.996264)" xlink:href="#CMBX12-101"/>
     </g>
    </g>
   </g>
   <g id="line2d_21">
    <path clip-path="url(#p3e32c92e7d)" d="M 65.22332 184.076 
L 105.39932 184.076 
L 105.39932 83.651351 
L 65.22332 83.651351 
L 65.22332 184.076 
" style="fill:none;stroke:#1f77b4;stroke-linecap:square;"/>
   </g>
   <g id="line2d_22">
    <path clip-path="url(#p3e32c92e7d)" d="M 85.31132 184.076 
L 85.31132 264.716 
" style="fill:none;stroke:#1f77b4;stroke-linecap:square;"/>
   </g>
   <g id="line2d_23">
    <path clip-path="url(#p3e32c92e7d)" d="M 85.31132 83.651351 
L 85.31132 32.221455 
" style="fill:none;stroke:#1f77b4;stroke-linecap:square;"/>
   </g>
   <g id="line2d_24">
    <path clip-path="url(#p3e32c92e7d)" d="M 75.26732 264.716 
L 95.35532 264.716 
" style="fill:none;stroke:#000000;stroke-linecap:square;"/>
   </g>
   <g id="line2d_25">
    <path clip-path="url(#p3e32c92e7d)" d="M 75.26732 32.221455 
L 95.35532 32.221455 
" style="fill:none;stroke:#000000;stroke-linecap:square;"/>
   </g>
   <g id="line2d_26"/>
   <g id="line2d_27">
    <path clip-path="url(#p3e32c92e7d)" d="M 154.50332 182.383049 
L 194.67932 182.383049 
L 194.67932 70.112144 
L 154.50332 70.112144 
L 154.50332 182.383049 
" style="fill:none;stroke:#1f77b4;stroke-linecap:square;"/>
   </g>
   <g id="line2d_28">
    <path clip-path="url(#p3e32c92e7d)" d="M 174.59132 182.383049 
L 174.59132 264.716 
" style="fill:none;stroke:#1f77b4;stroke-linecap:square;"/>
   </g>
   <g id="line2d_29">
    <path clip-path="url(#p3e32c92e7d)" d="M 174.59132 70.112144 
L 174.59132 24.536432 
" style="fill:none;stroke:#1f77b4;stroke-linecap:square;"/>
   </g>
   <g id="line2d_30">
    <path clip-path="url(#p3e32c92e7d)" d="M 164.54732 264.716 
L 184.63532 264.716 
" style="fill:none;stroke:#000000;stroke-linecap:square;"/>
   </g>
   <g id="line2d_31">
    <path clip-path="url(#p3e32c92e7d)" d="M 164.54732 24.536432 
L 184.63532 24.536432 
" style="fill:none;stroke:#000000;stroke-linecap:square;"/>
   </g>
   <g id="line2d_32"/>
   <g id="line2d_33">
    <path clip-path="url(#p3e32c92e7d)" d="M 243.78332 111.882854 
L 283.95932 111.882854 
L 283.95932 22.796 
L 243.78332 22.796 
L 243.78332 111.882854 
" style="fill:none;stroke:#1f77b4;stroke-linecap:square;"/>
   </g>
   <g id="line2d_34">
    <path clip-path="url(#p3e32c92e7d)" d="M 263.87132 111.882854 
L 263.87132 222.273895 
" style="fill:none;stroke:#1f77b4;stroke-linecap:square;"/>
   </g>
   <g id="line2d_35">
    <path clip-path="url(#p3e32c92e7d)" d="M 263.87132 22.796 
L 263.87132 22.796 
" style="fill:none;stroke:#1f77b4;stroke-linecap:square;"/>
   </g>
   <g id="line2d_36">
    <path clip-path="url(#p3e32c92e7d)" d="M 253.82732 222.273895 
L 273.91532 222.273895 
" style="fill:none;stroke:#000000;stroke-linecap:square;"/>
   </g>
   <g id="line2d_37">
    <path clip-path="url(#p3e32c92e7d)" d="M 253.82732 22.796 
L 273.91532 22.796 
" style="fill:none;stroke:#000000;stroke-linecap:square;"/>
   </g>
   <g id="line2d_38">
    <defs>
     <path d="M 0 3 
C 0.795609 3 1.55874 2.683901 2.12132 2.12132 
C 2.683901 1.55874 3 0.795609 3 0 
C 3 -0.795609 2.683901 -1.55874 2.12132 -2.12132 
C 1.55874 -2.683901 0.795609 -3 0 -3 
C -0.795609 -3 -1.55874 -2.683901 -2.12132 -2.12132 
C -2.683901 -1.55874 -3 -0.795609 -3 0 
C -3 0.795609 -2.683901 1.55874 -2.12132 2.12132 
C -1.55874 2.683901 -0.795609 3 0 3 
z
" id="mc4a12f734d" style="stroke:#000000;"/>
    </defs>
    <g clip-path="url(#p3e32c92e7d)">
     <use style="fill-opacity:0;stroke:#000000;" x="263.87132" xlink:href="#mc4a12f734d" y="264.716"/>
     <use style="fill-opacity:0;stroke:#000000;" x="263.87132" xlink:href="#mc4a12f734d" y="264.716"/>
     <use style="fill-opacity:0;stroke:#000000;" x="263.87132" xlink:href="#mc4a12f734d" y="264.716"/>
     <use style="fill-opacity:0;stroke:#000000;" x="263.87132" xlink:href="#mc4a12f734d" y="264.716"/>
     <use style="fill-opacity:0;stroke:#000000;" x="263.87132" xlink:href="#mc4a12f734d" y="264.716"/>
     <use style="fill-opacity:0;stroke:#000000;" x="263.87132" xlink:href="#mc4a12f734d" y="251.179587"/>
     <use style="fill-opacity:0;stroke:#000000;" x="263.87132" xlink:href="#mc4a12f734d" y="264.716"/>
    </g>
   </g>
   <g id="line2d_39">
    <path clip-path="url(#p3e32c92e7d)" d="M 333.06332 143.09381 
L 373.23932 143.09381 
L 373.23932 44.788727 
L 333.06332 44.788727 
L 333.06332 143.09381 
" style="fill:none;stroke:#1f77b4;stroke-linecap:square;"/>
   </g>
   <g id="line2d_40">
    <path clip-path="url(#p3e32c92e7d)" d="M 353.15132 143.09381 
L 353.15132 264.716 
" style="fill:none;stroke:#1f77b4;stroke-linecap:square;"/>
   </g>
   <g id="line2d_41">
    <path clip-path="url(#p3e32c92e7d)" d="M 353.15132 44.788727 
L 353.15132 22.796 
" style="fill:none;stroke:#1f77b4;stroke-linecap:square;"/>
   </g>
   <g id="line2d_42">
    <path clip-path="url(#p3e32c92e7d)" d="M 343.10732 264.716 
L 363.19532 264.716 
" style="fill:none;stroke:#000000;stroke-linecap:square;"/>
   </g>
   <g id="line2d_43">
    <path clip-path="url(#p3e32c92e7d)" d="M 343.10732 22.796 
L 363.19532 22.796 
" style="fill:none;stroke:#000000;stroke-linecap:square;"/>
   </g>
   <g id="line2d_44"/>
   <g id="line2d_45">
    <path clip-path="url(#p3e32c92e7d)" d="M 65.22332 133.676 
L 105.39932 133.676 
" style="fill:none;stroke:#2ca02c;stroke-linecap:square;"/>
   </g>
   <g id="line2d_46">
    <path clip-path="url(#p3e32c92e7d)" d="M 154.50332 111.064108 
L 194.67932 111.064108 
" style="fill:none;stroke:#2ca02c;stroke-linecap:square;"/>
   </g>
   <g id="line2d_47">
    <path clip-path="url(#p3e32c92e7d)" d="M 243.78332 50.7512 
L 283.95932 50.7512 
" style="fill:none;stroke:#2ca02c;stroke-linecap:square;"/>
   </g>
   <g id="line2d_48">
    <path clip-path="url(#p3e32c92e7d)" d="M 333.06332 90.861284 
L 373.23932 90.861284 
" style="fill:none;stroke:#2ca02c;stroke-linecap:square;"/>
   </g>
   <g id="patch_3">
    <path d="M 40.67132 276.812 
L 40.67132 10.7 
" style="fill:none;stroke:#000000;stroke-linecap:square;stroke-linejoin:miter;stroke-width:0.8;"/>
   </g>
   <g id="patch_4">
    <path d="M 397.79132 276.812 
L 397.79132 10.7 
" style="fill:none;stroke:#000000;stroke-linecap:square;stroke-linejoin:miter;stroke-width:0.8;"/>
   </g>
   <g id="patch_5">
    <path d="M 40.67132 276.812 
L 397.79132 276.812 
" style="fill:none;stroke:#000000;stroke-linecap:square;stroke-linejoin:miter;stroke-width:0.8;"/>
   </g>
   <g id="patch_6">
    <path d="M 40.67132 10.7 
L 397.79132 10.7 
" style="fill:none;stroke:#000000;stroke-linecap:square;stroke-linejoin:miter;stroke-width:0.8;"/>
   </g>
  </g>
 </g>
 <defs>
  <clipPath id="p3e32c92e7d">
   <rect height="266.112" width="357.12" x="40.67132" y="10.7"/>
  </clipPath>
 </defs>
</svg>
